<svg id="Capa_1" enable-background="new 0 0 512 512" height="512" viewBox="0 0 512 512" width="512" xmlns="http://www.w3.org/2000/svg"><g><path d="m490 245c0 135.31-109.69 245-245 245s-245-109.69-245-245 109.69-245 245-245 245 109.69 245 245z" fill="#00aaf2"/><path d="m458.155 264.549c0 110.457-89.543 200-200 200s-200-89.543-200-200 89.543-200 200-200 200 89.543 200 200z" fill="#00c1fb"/><path d="m75.34 220.88c0 30.446-16.866 55.128-37.67 55.128s-37.67-24.682-37.67-55.128 16.866-55.127 37.67-55.127 37.67 24.681 37.67 55.127zm341.224-55.128c-20.805 0-37.67 24.681-37.67 55.127s16.866 55.128 37.67 55.128 37.67-24.682 37.67-55.128-16.865-55.127-37.67-55.127z" fill="#ffbfab"/><path d="m454.234 220.88c0 20.405-7.575 38.22-18.835 47.752-11.26-9.532-18.835-27.347-18.835-47.752s7.576-38.22 18.835-47.752c11.26 9.532 18.835 27.347 18.835 47.752zm-402.14-50.942c-13.648 8.285-23.247 27.973-23.247 50.942s9.599 42.658 23.247 50.942c13.648-8.285 23.247-27.973 23.247-50.942s-9.6-42.657-23.247-50.942z" fill="#ffcebf"/><path d="m403.223 220.88c0 97.261-78.846 176.106-176.106 176.106s-176.106-78.845-176.106-176.106 78.845-176.106 176.106-176.106 176.106 78.845 176.106 176.106z" fill="#ffcebf"/><path d="m403.223 220.88c0 87.437-63.722 159.99-147.26 173.755-83.538-13.765-147.26-86.318-147.26-173.755s63.722-159.99 147.26-173.755c83.539 13.765 147.26 86.318 147.26 173.755z" fill="#ffdfcf"/><path d="m207.507 240.066c-2.929-2.929-2.929-7.678 0-10.606 2.93-2.93 7.678-2.929 10.607-.001 4.963 4.965 13.042 4.965 18.006 0 2.929-2.928 7.678-2.929 10.606.001 2.929 2.929 2.929 7.678 0 10.606-5.406 5.406-12.508 8.108-19.609 8.108-7.102.001-14.203-2.701-19.61-8.108zm62.187 37.792c-2.929-2.928-7.678-2.928-10.606 0-17.629 17.63-46.312 17.629-63.941 0-2.929-2.928-7.678-2.928-10.606 0-2.929 2.93-2.929 7.678 0 10.607 11.738 11.738 27.158 17.607 42.577 17.607s30.838-5.869 42.577-17.607c2.928-2.929 2.928-7.677-.001-10.607z" fill="#ffa78f"/><path d="m181.904 176.311c0 13.102-10.621 23.723-23.723 23.723s-23.723-10.622-23.723-23.723c0-13.103 10.621-23.724 23.723-23.724s23.723 10.622 23.723 23.724zm114.149-23.724c-13.102 0-23.723 10.621-23.723 23.724 0 13.102 10.621 23.723 23.723 23.723s23.723-10.622 23.723-23.723c.001-13.102-10.621-23.724-23.723-23.724z" fill="#883f2e"/><path d="m181.904 160.939c0 5.523-4.477 10-10 10s-10-4.477-10-10 4.477-10 10-10 10 4.477 10 10zm138.954 0c0 5.523-4.477 10-10 10s-10-4.477-10-10 4.477-10 10-10 10 4.477 10 10z" fill="#fff"/><path d="m232.069 89.547c-1.919 0-3.839-.732-5.303-2.196-23.477-23.478-23.477-61.677 0-85.154 2.929-2.928 7.678-2.928 10.606 0 2.929 2.93 2.929 7.678 0 10.607-17.628 17.628-17.628 46.312 0 63.939 2.929 2.93 2.929 7.678 0 10.607-1.464 1.464-3.383 2.197-5.303 2.197zm37.176-2.196c2.929-2.93 2.929-7.678 0-10.607-17.628-17.628-17.628-46.312 0-63.939 2.929-2.93 2.929-7.678 0-10.607-2.929-2.928-7.678-2.928-10.606 0-23.477 23.478-23.477 61.677 0 85.154 1.464 1.464 3.384 2.196 5.303 2.196 1.919-.001 3.839-.734 5.303-2.197zm-63.745 0c2.929-2.93 2.929-7.678 0-10.607-17.628-17.628-17.628-46.312 0-63.939 2.929-2.93 2.929-7.678 0-10.607-2.929-2.928-7.678-2.928-10.606 0-23.477 23.478-23.477 61.677 0 85.154 1.464 1.464 3.384 2.196 5.303 2.196 1.918-.001 3.838-.734 5.303-2.197z" fill="#883f2e"/><path d="m400.255 493.606c-3.521 3.247-8.945 3.247-12.466 0l-96.885-89.358c-23.815-21.965-27.978-58.047-9.791-84.858 3.306-4.873 7.146-9.757 11.386-14.442 5.407-5.975 13.371-9.028 21.376-8.1 11.43 1.325 22.673 5.686 32.478 13.283l23.927 18.539c3.605 2.794 8.644 2.794 12.25 0l23.927-18.539c29.86-23.136 73.05-16.264 94.256 14.996 18.188 26.811 14.024 62.893-9.791 84.858z" fill="#ff5757"/><path d="m400.908 493.004-17.724 16.347c-3.83 3.532-9.73 3.532-13.56 0l-107.737-99.367c-23.815-21.965-27.978-58.047-9.791-84.858 14.438-21.284 39.069-31.262 62.744-28.16-8.595 4.804-16.244 11.638-22.173 20.379-18.187 26.811-14.024 62.893 9.791 84.858z" fill="#ff4343"/></g></svg>