<?xml version="1.0" encoding="utf-8"?>
<!-- Generator: Adobe Illustrator 28.1.0, SVG Export Plug-In . SVG Version: 6.00 Build 0)  -->
<svg version="1.1" id="Capa_1" xmlns="http://www.w3.org/2000/svg" xmlns:xlink="http://www.w3.org/1999/xlink" x="0px" y="0px"
	 viewBox="0 0 512 512" style="enable-background:new 0 0 512 512;" xml:space="preserve">
<style type="text/css">
	.st0{fill:#FFBFAB;}
	.st1{fill:#FFCEBF;}
	.st2{fill:#FFDFCF;}
	.st3{fill:#FFA78F;}
	.st4{fill:#883F2E;}
	.st5{fill:#FFFFFF;}
</style>
<g>
	<path class="st0" d="M84.9,281.2c0,34.3-19,62.1-42.5,62.1S0,315.6,0,281.2s19-62.1,42.5-62.1S84.9,246.9,84.9,281.2z M469.5,219.1
		c-23.5,0-42.5,27.8-42.5,62.1s19,62.1,42.5,62.1s42.5-27.8,42.5-62.1S493,219.1,469.5,219.1L469.5,219.1z"/>
	<path class="st1" d="M512,281.2c0,23-8.5,43.1-21.2,53.8c-12.7-10.7-21.2-30.8-21.2-53.8c0-23,8.5-43.1,21.2-53.8
		C503.5,238.2,512,258.2,512,281.2L512,281.2z M58.7,223.8c-15.4,9.3-26.2,31.5-26.2,57.4s10.8,48.1,26.2,57.4
		c15.4-9.3,26.2-31.5,26.2-57.4S74.1,233.2,58.7,223.8L58.7,223.8z"/>
	<path class="st1" d="M454.5,281.2c0,109.6-88.9,198.5-198.5,198.5S57.5,390.9,57.5,281.2S146.4,82.7,256,82.7
		S454.5,171.6,454.5,281.2L454.5,281.2z"/>
	<path class="st2" d="M454.5,281.2c0,98.6-71.8,180.3-166,195.9c-94.2-15.5-166-97.3-166-195.9s71.8-180.3,166-195.9
		C382.7,100.9,454.5,182.7,454.5,281.2z"/>
	<path class="st3" d="M233.9,302.9c-3.3-3.3-3.3-8.7,0-12c3.3-3.3,8.7-3.3,12,0c5.6,5.6,14.7,5.6,20.3,0c3.3-3.3,8.7-3.3,12,0
		c3.3,3.3,3.3,8.7,0,12C272,309,264,312,256,312C248,312,240,309,233.9,302.9z M304,345.5c-3.3-3.3-8.7-3.3-12,0
		c-19.9,19.9-52.2,19.9-72.1,0c-3.3-3.3-8.7-3.3-12,0c-3.3,3.3-3.3,8.7,0,12c13.2,13.2,30.6,19.8,48,19.8s34.8-6.6,48-19.8
		C307.3,354.1,307.3,348.8,304,345.5z"/>
	<path class="st4" d="M205,231c0,14.8-12,26.7-26.7,26.7s-26.7-12-26.7-26.7c0-14.8,12-26.7,26.7-26.7S205,216.2,205,231L205,231z
		 M333.7,204.3c-14.8,0-26.7,12-26.7,26.7c0,14.8,12,26.7,26.7,26.7s26.7-12,26.7-26.7C360.4,216.2,348.5,204.3,333.7,204.3z"/>
	<path class="st5" d="M205,213.7c0,6.2-5,11.3-11.3,11.3c-6.2,0-11.3-5-11.3-11.3c0-6.2,5-11.3,11.3-11.3
		C200,202.4,205,207.4,205,213.7z M361.7,213.7c0,6.2-5,11.3-11.3,11.3s-11.3-5-11.3-11.3c0-6.2,5-11.3,11.3-11.3
		S361.7,207.4,361.7,213.7z"/>
	<path class="st4" d="M261.6,133.2c-2.2,0-4.3-0.8-6-2.5c-26.5-26.5-26.5-69.5,0-96c3.3-3.3,8.7-3.3,12,0c3.3,3.3,3.3,8.7,0,12
		c-19.9,19.9-19.9,52.2,0,72.1c3.3,3.3,3.3,8.7,0,12C265.9,132.4,263.7,133.2,261.6,133.2L261.6,133.2z M303.5,130.7
		c3.3-3.3,3.3-8.7,0-12c-19.9-19.9-19.9-52.2,0-72.1c3.3-3.3,3.3-8.7,0-12c-3.3-3.3-8.7-3.3-12,0c-26.5,26.5-26.5,69.5,0,96
		c1.7,1.7,3.8,2.5,6,2.5C299.7,133.2,301.8,132.4,303.5,130.7L303.5,130.7z M231.6,130.7c3.3-3.3,3.3-8.7,0-12
		c-19.9-19.9-19.9-52.2,0-72.1c3.3-3.3,3.3-8.7,0-12c-3.3-3.3-8.7-3.3-12,0c-26.5,26.5-26.5,69.5,0,96c1.7,1.7,3.8,2.5,6,2.5
		C227.8,133.2,230,132.4,231.6,130.7L231.6,130.7z"/>
</g>
</svg>
