<svg id="Capa_1" enable-background="new 0 0 497 497" height="512" viewBox="0 0 497 497" width="512" xmlns="http://www.w3.org/2000/svg"><g><path d="m373.344 185.083c-12.524-15.558-37.02-14.123-51.143 0l33.321-33.321c14.123-14.123 14.123-37.02 0-51.143-14.123-14.123-37.02-14.122-51.143 0l14.846-14.846c14.123-14.123 14.123-37.02 0-51.143-14.123-14.123-37.02-14.123-51.143 0l-29.822 29.822c14.123-14.123 15.246-38.906 0-51.143-35.185-28.241-110.027 54.143-157.679 113.621v-41.352c0-22.252-18.039-40.291-40.291-40.291-22.251 0-40.29 18.039-40.29 40.291v65.844h.058c0 60.496-2.991 119.405 65.562 187.958 45.62 45.62 124.723 55.853 180.988 17.87 34.409-23.229 162.077-128.268 126.736-172.167z" fill="#e9a982"/><path d="m375.761 221.322c-19.134-18.734-36.018-31.327-51.315-38.291-.771.653-1.524 1.331-2.244 2.051l2.113-2.113c-9.717-4.406-18.796-6.546-27.406-6.546-14.587 0-27.157 6.15-36.036 16.243-37.321-14.227-76.402 14.799-74.332 54.198-25.269 14.208-34.887 45.348-22.84 71.128-11.708 10.918-17.522 26.611-14.79 44.74.827 5.486 2.448 11.179 4.859 17.094 32.005 3.106 65.18-3.906 92.837-22.577 26.856-18.129 110.517-86.091 129.154-135.927z" fill="#c7856a"/><g fill="#c7856a"><path d="m181.935 128.278c-1.919 0-3.839-.732-5.303-2.196-2.929-2.93-2.929-7.678 0-10.607l56.327-56.326c2.929-2.928 7.678-2.928 10.606 0 2.929 2.93 2.929 7.678 0 10.608l-56.327 56.326c-1.464 1.463-3.384 2.195-5.303 2.195z"/><path d="m234.24 178.259c-1.919 0-3.839-.732-5.303-2.196-2.929-2.93-2.929-7.678 0-10.607l70.139-70.14c2.93-2.928 7.678-2.928 10.607 0 2.929 2.93 2.929 7.678 0 10.608l-70.14 70.14c-1.464 1.462-3.383 2.195-5.303 2.195z"/><path d="m125.605 285.829c-.431 0-.868-.037-1.307-.114-4.08-.717-6.806-4.604-6.089-8.685 7.351-41.85 1.788-78.062-16.089-104.724-2.307-3.44-1.388-8.099 2.052-10.406s8.1-1.389 10.406 2.053c20.075 29.938 26.439 69.936 18.405 115.673-.639 3.641-3.804 6.203-7.378 6.203z"/></g><path d="m179.957 340.06c9.641-11.976 28.498-10.872 39.37 0l-25.65-25.65c-10.872-10.872-10.872-28.498 0-39.37 10.872-10.871 28.498-10.871 39.37 0l-11.428-11.428c-10.872-10.872-10.872-28.498 0-39.37 10.872-10.872 28.498-10.872 39.37 0l22.957 22.957c-10.872-10.871-11.736-29.95 0-39.37 27.087-21.74 84.7 41.679 121.382 87.465v-31.833c0-17.13 13.886-31.016 31.016-31.016 17.13 0 31.016 13.886 31.016 31.016v50.686h-.044c0 46.57 2.302 91.918-50.47 144.69-35.118 35.118-96.011 42.996-139.325 13.756-26.49-17.88-124.77-98.739-97.564-132.533z" fill="#ffd3bc"/><g fill="#ffbe9c"><path d="m330.716 301.47c-1.919 0-3.839-.732-5.304-2.196l-46.773-46.771c-2.929-2.93-2.929-7.678 0-10.607 2.93-2.928 7.678-2.928 10.608 0l46.772 46.771c2.929 2.93 2.929 7.678 0 10.607-1.464 1.463-3.384 2.196-5.303 2.196z"/><path d="m290.451 339.944c-1.919 0-3.839-.732-5.304-2.196l-57.405-57.405c-2.929-2.93-2.929-7.678 0-10.607 2.929-2.928 7.678-2.928 10.606 0l57.406 57.405c2.929 2.93 2.929 7.678 0 10.607-1.464 1.464-3.384 2.196-5.303 2.196z"/><path d="m261.159 389.392c-1.919 0-3.839-.732-5.304-2.196l-41.832-41.832c-2.929-2.93-2.929-7.678 0-10.607 2.929-2.928 7.678-2.928 10.607 0l41.833 41.832c2.929 2.93 2.929 7.678 0 10.607-1.465 1.463-3.385 2.196-5.304 2.196z"/></g><g><path d="m373.844 43.929c0 32.463 36.289 53.842 55.154 62.833 4.066 1.938 8.783 1.938 12.849 0 18.864-8.991 55.153-30.37 55.153-62.833 0-20.686-16.769-37.455-37.455-37.455-8.381 0-16.117 2.754-22.357 7.405-1.051.783-2.481.783-3.532 0-6.24-4.651-13.976-7.405-22.357-7.405-20.686 0-37.455 16.769-37.455 37.455z" fill="#ff6e80"/><path d="m481.327 79.352c-70.936 7.011-83.11-46.57-76.681-72.276-17.51 3.141-30.803 18.44-30.803 36.854 0 32.463 36.289 53.842 55.154 62.833 4.066 1.938 8.783 1.938 12.849 0 10.809-5.152 27.335-14.372 39.481-27.411z" fill="#f8475e"/></g></g></svg>