<svg height="512pt" viewBox="0 -53 512 512" width="512pt" xmlns="http://www.w3.org/2000/svg"><g fill-rule="evenodd"><path d="m485.515625 52.964844h-459.03125c-14.628906 0-26.484375-11.855469-26.484375-26.480469 0-14.628906 11.855469-26.484375 26.484375-26.484375h459.03125c14.628906 0 26.484375 11.855469 26.484375 26.484375 0 14.625-11.855469 26.480469-26.484375 26.480469zm0 0" fill="#1a9673"/><path d="m485.515625 229.515625h-459.03125c-14.628906 0-26.484375-11.855469-26.484375-26.480469s11.855469-26.484375 26.484375-26.484375h459.03125c14.628906 0 26.484375 11.859375 26.484375 26.484375s-11.855469 26.480469-26.484375 26.480469zm0 0" fill="#1a9673"/><path d="m485.515625 406.070312h-459.03125c-14.628906 0-26.484375-11.859374-26.484375-26.484374s11.855469-26.484376 26.484375-26.484376h459.03125c14.628906 0 26.484375 11.859376 26.484375 26.484376s-11.855469 26.484374-26.484375 26.484374zm0 0" fill="#1a9673"/><g fill="#98FB98"><path d="m79.449219 26.484375h-17.65625c-4.875 0-8.828125-3.953125-8.828125-8.828125s3.953125-8.828125 8.828125-8.828125h17.65625c4.875 0 8.828125 3.953125 8.828125 8.828125s-3.953125 8.828125-8.828125 8.828125zm0 0"/><path d="m450.207031 26.484375h-17.65625c-4.875 0-8.828125-3.953125-8.828125-8.828125s3.953125-8.828125 8.828125-8.828125h17.65625c4.875 0 8.828125 3.953125 8.828125 8.828125s-3.953125 8.828125-8.828125 8.828125zm0 0"/><path d="m397.242188 26.484375h-282.484376c-4.875 0-8.828124-3.953125-8.828124-8.828125s3.953124-8.828125 8.828124-8.828125h282.484376c4.875 0 8.828124 3.953125 8.828124 8.828125s-3.953124 8.828125-8.828124 8.828125zm0 0"/><path d="m79.449219 203.035156h-17.65625c-4.875 0-8.828125-3.953125-8.828125-8.828125s3.953125-8.828125 8.828125-8.828125h17.65625c4.875 0 8.828125 3.953125 8.828125 8.828125s-3.953125 8.828125-8.828125 8.828125zm0 0"/><path d="m450.207031 203.035156h-17.65625c-4.875 0-8.828125-3.953125-8.828125-8.828125s3.953125-8.828125 8.828125-8.828125h17.65625c4.875 0 8.828125 3.953125 8.828125 8.828125s-3.953125 8.828125-8.828125 8.828125zm0 0"/><path d="m397.242188 203.035156h-282.484376c-4.875 0-8.828124-3.953125-8.828124-8.828125s3.953124-8.828125 8.828124-8.828125h282.484376c4.875 0 8.828124 3.953125 8.828124 8.828125s-3.953124 8.828125-8.828124 8.828125zm0 0"/><path d="m79.449219 379.585938h-17.65625c-4.875 0-8.828125-3.953126-8.828125-8.828126s3.953125-8.828124 8.828125-8.828124h17.65625c4.875 0 8.828125 3.953124 8.828125 8.828124s-3.953125 8.828126-8.828125 8.828126zm0 0"/><path d="m450.207031 379.585938h-17.65625c-4.875 0-8.828125-3.953126-8.828125-8.828126s3.953125-8.828124 8.828125-8.828124h17.65625c4.875 0 8.828125 3.953124 8.828125 8.828124s-3.953125 8.828126-8.828125 8.828126zm0 0"/><path d="m397.242188 379.585938h-282.484376c-4.875 0-8.828124-3.953126-8.828124-8.828126s3.953124-8.828124 8.828124-8.828124h282.484376c4.875 0 8.828124 3.953124 8.828124 8.828124s-3.953124 8.828126-8.828124 8.828126zm0 0"/></g></g></svg>