<?xml version="1.0" encoding="UTF-8"?>
<svg xmlns="http://www.w3.org/2000/svg" xmlns:xlink="http://www.w3.org/1999/xlink" version="1.1"
    id="uuid-a427b191-a35b-4650-a313-d83781f34171" x="0px" y="0px" viewBox="0 0 239.4 239.4"
    style="enable-background:new 0 0 239.4 239.4;" xml:space="preserve">
    <style type="text/css">
        .st0{fill:#9AE59C;}
        .st1{fill:#6FD6A2;}
        .st2{fill:#FFFFFF;}
        .st3{fill:none;stroke:#000000;stroke-width:15;stroke-linecap:round;stroke-linejoin:round;}
    </style>
    <g id="uuid-bb544814-303b-49ec-b212-fa586eb5e237">
        <circle class="st0" cx="119.7" cy="119.7" r="112.2"/>
        <path class="st1" d="M135.8,215.9c-62,0-112.2-50.2-112.2-112.2c0-26.9,9.5-51.6,25.3-70.9c-25.2,20.6-41.3,51.9-41.3,87   c0,62,50.2,112.2,112.2,112.2c35.1,0,66.4-16.1,86.9-41.3C187.3,206.4,162.7,215.9,135.8,215.9L135.8,215.9z"/>
        <path d="M119.7,0C53.7,0,0,53.7,0,119.7s53.7,119.7,119.7,119.7s119.7-53.7,119.7-119.7S185.7,0,119.7,0z M119.7,224.4   C62,224.4,15,177.5,15,119.7S62,15,119.7,15s104.7,47,104.7,104.7S177.5,224.5,119.7,224.4L119.7,224.4z"/>
        <g>
            <g>
                <path class="st2" d="M91.1,165L91.1,165c-7.8,0-14.2-4-14.2-8.9v-65c0-4.9,6.4-8.9,14.2-8.9l0,0c7.8,0,14.2,4,14.2,8.9v65     C105.4,161,99,165,91.1,165z"/>
                <path class="st0" d="M92.2,82.2c0.6,1,0.9,2,0.9,3.1v65c0,4.9-6.4,8.9-14.2,8.9c-0.4,0-0.7,0-1.1,0c2,3.4,7.2,5.7,13.3,5.7     c7.8,0,14.2-4,14.2-8.9v-65C105.4,86.4,99.6,82.6,92.2,82.2L92.2,82.2z"/>
                <path class="st3" d="M91.1,165L91.1,165c-7.8,0-14.2-4-14.2-8.9v-65c0-4.9,6.4-8.9,14.2-8.9l0,0c7.8,0,14.2,4,14.2,8.9v65     C105.4,161,99,165,91.1,165z"/>
            </g>
            <g>
                <path class="st2" d="M148.3,165L148.3,165c-7.9,0-14.2-4-14.2-8.9v-65c0-4.9,6.4-8.9,14.2-8.9l0,0c7.9,0,14.2,4,14.2,8.9v65     C162.5,161,156.2,165,148.3,165z"/>
                <path class="st0" d="M149.4,82.2c0.6,1,0.9,2,0.9,3.1v65c0,4.9-6.4,8.9-14.2,8.9c-0.4,0-0.7,0-1.1,0c2,3.4,7.2,5.7,13.3,5.7     c7.9,0,14.2-4,14.2-8.9v-65C162.5,86.4,156.7,82.6,149.4,82.2L149.4,82.2z"/>
                <path class="st3" d="M148.3,165L148.3,165c-7.9,0-14.2-4-14.2-8.9v-65c0-4.9,6.4-8.9,14.2-8.9l0,0c7.9,0,14.2,4,14.2,8.9v65     C162.5,161,156.2,165,148.3,165z"/>
            </g>
        </g>
    </g>
</svg>