<svg height="512pt" viewBox="0 0 512 512" width="512pt" xmlns="http://www.w3.org/2000/svg"><g fill-rule="evenodd"><path d="m423.722656 35.308594v61.792968h-335.445312v-61.792968c0-19.5 15.808594-35.308594 35.308594-35.308594h264.828124c19.5 0 35.308594 15.808594 35.308594 35.308594zm0 0" fill="#eb626f"/><path d="m467.863281 114.757812v88.277344h-423.726562v-88.277344c0-19.5 15.808593-35.308593 35.3125-35.308593h353.101562c19.503907 0 35.3125 15.808593 35.3125 35.308593zm0 0" fill="#d9515e"/><path d="m35.308594 158.898438h441.382812c19.5 0 35.308594 15.808593 35.308594 35.308593v282.484375c0 19.5-15.808594 35.308594-35.308594 35.308594h-441.382812c-19.5 0-35.308594-15.808594-35.308594-35.308594v-282.484375c0-19.5 15.808594-35.308593 35.308594-35.308593zm0 0" fill="#eb626f"/><path d="m206.566406 248.453125 143.148438 89.945313c2.09375 1.214843 3.382812 3.453124 3.382812 5.878906 0 2.421875-1.289062 4.660156-3.382812 5.878906l-143.148438 89.941406c-2.332031 1.574219-5.316406 1.800782-7.855468.59375-2.539063-1.207031-4.25-3.664062-4.503907-6.460937v-179.90625c.253907-2.800781 1.964844-5.257813 4.503907-6.464844 2.539062-1.203125 5.523437-.980469 7.855468.59375zm0 0" fill="#f4f6f8"/><path d="m35.308594 264.828125c-4.875 0-8.824219-3.953125-8.824219-8.828125v-44.136719c0-14.628906 11.855469-26.484375 26.480469-26.484375h44.136718c4.878907 0 8.828126 3.953125 8.828126 8.828125s-3.949219 8.828125-8.828126 8.828125h-44.136718c-4.875 0-8.828125 3.953125-8.828125 8.828125v44.136719c0 2.339844-.929688 4.585938-2.585938 6.242188-1.652343 1.65625-3.898437 2.585937-6.242187 2.585937zm0 0" fill="#f7788d"/><path d="m476.691406 264.828125c-4.878906 0-8.828125-3.953125-8.828125-8.828125v-44.136719c0-4.875-3.953125-8.828125-8.828125-8.828125h-44.136718c-4.878907 0-8.828126-3.953125-8.828126-8.828125s3.949219-8.828125 8.828126-8.828125h44.136718c14.625 0 26.480469 11.855469 26.480469 26.484375v44.136719c0 2.339844-.929687 4.585938-2.582031 6.242188-1.65625 1.65625-3.902344 2.585937-6.242188 2.585937zm0 0" fill="#f7788d"/><path d="m379.585938 35.308594h-247.171876c-4.875 0-8.828124-3.949219-8.828124-8.824219 0-4.878906 3.953124-8.828125 8.828124-8.828125h247.171876c4.875 0 8.828124 3.949219 8.828124 8.828125 0 4.875-3.953124 8.824219-8.828124 8.824219zm0 0" fill="#fc717f"/><path d="m423.722656 114.757812h-335.445312c-4.875 0-8.828125-3.953124-8.828125-8.828124s3.953125-8.828126 8.828125-8.828126h335.445312c4.875 0 8.828125 3.953126 8.828125 8.828126s-3.953125 8.828124-8.828125 8.828124zm0 0" fill="#e35b68"/></g></svg>