<svg id="Layer_1" enable-background="new 0 0 458.181 458.181" height="512" viewBox="0 0 458.181 458.181" width="512" xmlns="http://www.w3.org/2000/svg"><g><path d="m212.547 241.307c-75.486-41.063-70.234-38.211-70.573-38.379-1.636-.803-3.356-1.229-5.295-1.311-2.029-.07-41.878 5.634-112.873 15.628-20.777 2.925-23.231 8.709-23.49 25.709-.242 15.922-.215 52.223-.316 116.791-.023 15.037 2.652 16.001 11.047 20.568l66.282 36.058c-4.36-2.373 133.337-176.088 135.218-175.064z" fill="#00d2a9"/><path d="m219.768 260.257-.222 119.325c-.022 11.757-3.917 19.956-21.163 22.38l-107.89 15.163c-12.714 1.787-20.433 1.146-20.391-21.706l.22-118.324c.022-11.719 4.049-18.972 22.254-21.53l100.687-14.151c24.665-3.467 26.537 1.802 26.505 18.843z" fill="#00e9b1"/><path d="m435.151 201.379c-25.983-2.189-121.595-10.23-122.756-10.212-2.971 0-6.272.936-9.032 2.96-1.178.872 2.763-2.752-45.009 42.021 3.052-2.865 151.067 164.021 151.139 163.893-.02.106 29.912-27.985 40.835-38.328 7.623-7.218 7.52-8.62 7.569-17.273.111-19.734.222-92.275.255-116.71.016-12.054 1.679-24.272-23.001-26.351z" fill="#ffa654"/><path d="m414.535 269.248-.206 111.175c-.049 26.214-9.898 24.252-25.32 22.959l-112.558-9.441c-14.566-1.222-23.187-2.401-23.142-26.436l.208-112.098c.021-11.084-1.834-24.878 22.821-22.81l112.644 9.448c26.206 2.198 25.583 11.046 25.553 27.203z" fill="#ffb563"/><path d="m307.244 63.218c-.218-9.384-5.62-16.801-21.777-17.508-25.833-1.13-126.684-5.295-127.504-5.276-10.687.253-11.551 4.433-39.086 41.44 18.957 18.745 119.835 123.252 158.66 156.188 14.992-20.149 22.176-29.493 25.718-34.592 3.319-4.777 3.441-5.827 3.795-8.545.216-1.666.197-131.572.194-131.707z" fill="#a4a4f7"/><path d="m280.791 104.33-.056 118.787c-.006 12.681-2.839 22.128-21.18 21.368l-122.923-5.095c-12.425-.515-21.319-4.378-21.31-22.731l.054-114.635c.009-18.61 2.41-26.64 21.032-25.868l122.679 5.085c18.385.762 21.71 9.645 21.704 23.089z" fill="#c5c5ff"/><path d="m322.396 265.411c-10.91 22.412-11.179 25.705-16.524 25.793l-24.102.391c-6.303.102-8.808 8.113-4.238 13.552l17.489 20.807c4.718 5.619-1.848 32.997-1.849 32.997-1.066 6.597 5.51 12.721 11.166 10.309 21.853-9.338 23.905-11.588 28.691-8.203l21.596 15.271c5.64 3.987 12.223-.244 11.134-7.175-4.233-26.915-5.836-30.009-1.972-33.534l17.414-15.901c4.553-4.157 2.017-12.877-4.283-14.75l-24.123-7.168c-6.503-1.932-16.627-30.452-16.621-30.451-2.821-6.541-10.964-7.72-13.778-1.938z" fill="#f6d14f"/><path d="m160.388 272.438c8.79-1.235 25.425-.187 18.256 6.251-29.963 26.918-29.815 74.832.357 92.924 9.224 5.529-8.275 12.558-19.264 14.032-68.931 9.072-68.511-103.487.651-113.207z" fill="#4096ff"/><path d="m190.895 139.753s17.155-20.035 36.762-16.045c6.536 1.33 14.523 4.523 19.879 13.629 19.686 33.466-54.493 74.895-54.493 74.895-59.356-25.511-63.451-70.143-46.139-83.032 22.963-17.097 43.991 10.553 43.991 10.553" fill="#ff6b7d"/></g></svg>