<svg id="Capa_1" enable-background="new 0 0 512 512" height="512" viewBox="0 0 512 512" width="512" xmlns="http://www.w3.org/2000/svg"><g><path d="m188.843 400.184c-40.154 0-69.536-9.737-96.81-21.939-27.182 20.252-38.315 52.593-35.775 74.1 34.475 15.592 76.101 30.1 132.585 30.1 22.715 0 41.131-18.415 41.131-41.131-.001-22.716-18.416-41.13-41.131-41.13z" fill="#6ad5bc"/><path d="m76.942 371.211c-20.479-9.837-45.048-1.209-54.884 19.266-9.836 20.476-1.211 45.049 19.265 54.884 4.836 2.323 9.808 4.665 14.934 6.984 12.848-12.111 34.303-40.803 35.775-74.1-5.084-2.275-10.096-4.635-15.09-7.034z" fill="#ffdacc"/><path d="m323.157 400.184c40.154 0 69.536-9.737 96.81-21.939 27.182 20.252 38.315 52.593 35.775 74.1-34.474 15.592-76.101 30.1-132.585 30.1-22.715 0-41.131-18.415-41.131-41.131s18.416-41.13 41.131-41.13z" fill="#6ad5bc"/><path d="m435.058 371.211c20.479-9.837 45.048-1.209 54.884 19.266 9.836 20.476 1.211 45.049-19.265 54.884-4.836 2.323-9.808 4.665-14.934 6.984-12.848-12.111-34.303-40.803-35.775-74.1 5.084-2.275 10.096-4.635 15.09-7.034z" fill="#ffdacc"/><path d="m375.88 485.241c-3.57-21.399-12.735-40.903-25.934-56.965-29.723 0-60.899-7.28-93.946-7.28s-64.223 7.28-93.946 7.28c-13.2 16.062-22.364 35.566-25.934 56.965-1.762 10.559 6.481 20.149 17.186 20.149h205.389c10.704.001 18.947-9.59 17.185-20.149z" fill="#8ce0df"/><ellipse cx="62.915" cy="254.391" fill="#ffc8bb" rx="62.915" ry="58.799"/><ellipse cx="449.085" cy="254.391" fill="#ffc8bb" rx="62.915" ry="58.799"/><path d="m40.278 260.157c-2.671 0-5.257-1.43-6.611-3.947-1.963-3.647-.598-8.196 3.05-10.159 2.677-1.441 27.044-13.793 57.646-3.786 3.937 1.287 6.085 5.522 4.798 9.459s-5.521 6.087-9.46 4.798c-25.086-8.2-45.037 2.286-45.875 2.737-1.131.61-2.348.898-3.548.898z" fill="#d8a783"/><path d="m471.722 260.157c-1.2 0-2.417-.288-3.548-.897-.836-.45-20.79-10.936-45.875-2.737-3.942 1.291-8.173-.861-9.46-4.798s.861-8.172 4.798-9.459c30.605-10.007 54.97 2.344 57.647 3.786 3.647 1.963 5.013 6.511 3.05 10.159-1.356 2.516-3.941 3.946-6.612 3.946z" fill="#d8a783"/><path d="m256 447.914c33.047 0 64.995-6.795 93.946-19.638-22.291-27.125-56.097-44.429-93.946-44.429s-71.655 17.304-93.946 44.429c28.951 12.843 60.898 19.638 93.946 19.638z" fill="#6ad5bc"/><ellipse cx="256" cy="248.364" fill="#ffdacc" rx="185.724" ry="168.644"/><path d="m261.58 42.219c10.617-13.015 27.923-27.621 41.483-34.767 4.724-2.49 10.344.825 10.497 6.163.386 13.457 4.435 30.06 8.164 39.429 1.562 3.925 6.162 5.614 9.922 3.69 17.914-9.167 55.124-18.226 81.932-10.291 5.66 1.675 6.921 9.086 2.196 12.623-10.977 8.216-19.65 19.704-24.563 30.12-1.736 3.68-.017 8.088 3.75 9.627 80.563 32.915 70.79 114.582 53.701 151.481-2.583 5.579-10.582 5.42-13.031-.219-11.559-26.613-35.97-74.576-61.208-95.335-3.921-3.225-9.946-1.573-11.487 3.264-3.982 12.498-14.475 27.281-27.44 36.422-4.072 2.871-9.76.749-11.015-4.072-9.395-36.098-29.024-77.11-64.707-54.553-2.298 1.452-5.25 1.452-7.548 0-35.683-22.558-55.312 18.455-64.707 54.553-1.255 4.822-6.943 6.943-11.015 4.072-12.965-9.141-23.459-23.923-27.44-36.422-1.541-4.837-7.566-6.489-11.487-3.264-25.238 20.759-49.649 68.722-61.208 95.335-2.449 5.639-10.448 5.797-13.031.219-17.089-36.899-26.862-118.566 53.701-151.481 3.767-1.539 5.486-5.947 3.75-9.627-4.913-10.416-13.586-21.904-24.563-30.12-4.725-3.537-3.464-10.948 2.196-12.623 26.809-7.936 64.018 1.123 81.932 10.291 3.761 1.924 8.36.235 9.922-3.69 3.729-9.369 7.779-25.972 8.165-39.429.153-5.338 5.773-8.652 10.497-6.163 13.56 7.146 30.866 21.752 41.483 34.767 2.893 3.548 8.265 3.548 11.159 0z" fill="#e48895"/><path d="m261.58 42.219c10.617-13.015 27.923-27.621 41.483-34.767 4.724-2.49 10.344.825 10.497 6.163.386 13.457 4.435 30.06 8.164 39.429 1.562 3.925 6.162 5.614 9.922 3.69 17.914-9.167 55.124-18.226 81.932-10.291 5.66 1.675 6.921 9.086 2.196 12.623-10.977 8.216-19.65 19.704-24.563 30.12-1.736 3.68-.017 8.088 3.75 9.627 80.563 32.915 70.79 114.582 53.701 151.481-2.583 5.579-10.582 5.42-13.031-.219-11.559-26.613-35.97-74.576-61.208-95.335-3.921-3.225-9.946-1.573-11.487 3.264-3.982 12.498-14.475 27.281-27.44 36.422-4.072 2.871-9.76.749-11.015-4.072-9.395-36.098-29.024-77.11-64.707-54.553-2.298 1.452-5.25 1.452-7.548 0-35.683-22.558-55.312 18.455-64.707 54.553-1.255 4.822-6.943 6.943-11.015 4.072-12.965-9.141-23.459-23.923-27.44-36.422-1.541-4.837-7.566-6.489-11.487-3.264-25.238 20.759-49.649 68.722-61.208 95.335-2.449 5.639-10.448 5.797-13.031.219-17.089-36.899-26.862-118.566 53.701-151.481 3.767-1.539 5.486-5.947 3.75-9.627-4.913-10.416-13.586-21.904-24.563-30.12-4.725-3.537-3.464-10.948 2.196-12.623 26.809-7.936 64.018 1.123 81.932 10.291 3.761 1.924 8.36.235 9.922-3.69 3.729-9.369 7.779-25.972 8.165-39.429.153-5.338 5.773-8.652 10.497-6.163 13.56 7.146 30.866 21.752 41.483 34.767 2.893 3.548 8.265 3.548 11.159 0z" fill="#e48895"/><path d="m185.221 57.346c-1.581.357-3.296.191-4.868-.613-17.914-9.167-55.123-18.226-81.932-10.291-5.66 1.675-6.921 9.086-2.196 12.623 10.977 8.216 19.65 19.704 24.563 30.12 1.736 3.68.017 8.088-3.75 9.627-80.563 32.915-70.79 114.582-53.701 151.481 2.583 5.579 10.582 5.42 13.031-.219 11.559-26.613 35.97-74.576 61.208-95.335 3.921-3.225 9.946-1.573 11.487 3.264 3.982 12.498 14.475 27.281 27.44 36.422 4.072 2.871 9.76.749 11.015-4.072 4.693-18.033 11.941-37.291 22.467-49.239-21.485-13.688-33.359-60.038-24.764-83.768z" fill="#e06e7e"/><g><g><path d="m202.172 274.713c.007 13.843-14.079 25.072-31.463 25.081-17.383.009-31.481-11.206-31.488-25.049s14.08-25.073 31.463-25.081c17.383-.01 31.481 11.205 31.488 25.049z" fill="#eda1ab"/><path d="m309.828 274.659c.007 13.843 14.105 25.058 31.488 25.049s31.47-11.238 31.463-25.081-14.105-25.059-31.488-25.05-31.47 11.238-31.463 25.082z" fill="#eda1ab"/><path d="m286.848 263.338c-.01-19.068-13.824-20.852-30.864-20.844s-30.853 1.807-30.843 20.875 13.831 34.518 30.871 34.509c17.04-.008 30.845-15.472 30.836-34.54z" fill="#4f5c6f"/></g><g fill="#4f5c6f"><path d="m174.045 254.951c-4.141.001-7.498-3.355-7.5-7.497-.006-12.396 10.074-22.487 22.47-22.493h.013c6 0 11.643 2.335 15.888 6.577 4.249 4.244 6.59 9.889 6.593 15.894.002 4.142-3.354 7.502-7.496 7.503-.001 0-.003 0-.004 0-4.141 0-7.498-3.355-7.5-7.496-.001-1.999-.78-3.877-2.193-5.289-1.413-1.411-3.291-2.188-5.288-2.188-.001 0-.003 0-.004 0-4.125.002-7.48 3.36-7.478 7.486.002 4.142-3.355 7.501-7.496 7.503-.002 0-.004 0-.005 0z"/><path d="m307.965 254.884c-4.141 0-7.497-3.354-7.5-7.496-.004-6.005 2.332-11.652 6.576-15.901 4.244-4.248 9.889-6.589 15.894-6.593h.011c12.393 0 22.477 10.078 22.482 22.471.002 4.142-3.354 7.502-7.496 7.504-.001 0-.003 0-.004 0-4.141 0-7.498-3.355-7.5-7.497-.002-4.124-3.358-7.478-7.482-7.478-.001 0-.002 0-.003 0-1.998.001-3.877.78-5.289 2.194-1.412 1.413-2.189 3.292-2.188 5.29.003 4.142-3.354 7.502-7.495 7.504-.003.002-.005.002-.006.002z"/></g></g></g></svg>