<svg id="Capa_1" enable-background="new 0 0 512 512" height="512" viewBox="0 0 512 512" width="512" xmlns="http://www.w3.org/2000/svg"><g><path d="m260.687 487.547c-51.851 38.674-123.859 28.872-182.792-30.062-48.482-48.482-74.856-91.212-66.778-134.554 6.7-35.945 37.336-46.725 64.366-55.893 34.48-11.695 31.895-47.331 69.896-57.842 37.835-10.465 81.033 9.402 126.218 54.587 87.275 87.277 46.84 180.69-10.91 223.764z" fill="#00ce8e"/><path d="m260.687 487.547c4.757-3.548 9.393-7.445 13.853-11.645-163.602 4.818-162.343-188.216-122.17-268.281-2.35.414-4.681.936-6.992 1.575-38.001 10.511-35.416 46.147-69.896 57.842-27.03 9.168-57.666 19.948-64.365 55.893-8.079 43.342 18.296 86.072 66.778 134.554 58.934 58.934 130.941 68.736 182.792 30.062z" fill="#00c172"/><path d="m185.306 96.826 44.139-76.45c10.502-18.19 33.761-24.422 51.95-13.92 18.2 10.502 24.422 33.763 13.92 51.95l-44.139 76.45c-10.502 18.19-33.761 24.422-51.95 13.92-18.269-10.543-24.376-33.84-13.92-51.95z" fill="#ffbbd5"/><path d="m364.347 307.5c-10.502-18.19-4.269-41.448 13.92-51.95l76.681-44.272c18.189-10.501 41.446-4.275 51.95 13.92 10.502 18.19 4.269 41.448-13.92 51.95l-76.681 44.272c-18.105 10.454-41.404 4.351-51.95-13.92z" fill="#827cd1"/><path d="m432.036 224.506-53.769 31.044c-18.189 10.502-24.422 33.761-13.92 51.95 10.547 18.27 33.846 24.374 51.95 13.92l41.515-23.969c-32.768-11.661-30.565-53.302-25.776-72.945z" fill="#625ac4"/><path d="m372.747 416.875c-1.83-20.923 13.649-39.369 34.572-41.201l53.435-4.675c20.923-1.83 39.37 13.648 41.201 34.572 1.829 20.923-13.649 39.369-34.572 41.201l-53.436 4.675c-20.821 1.821-39.361-13.553-41.2-34.572z" fill="#ffb25a"/><path d="m294.34 213.348c-14.852-14.852-14.852-38.932 0-53.784l79.507-79.507c14.852-14.852 38.932-14.852 53.783 0 14.852 14.852 14.852 38.932 0 53.784l-79.507 79.507c-14.851 14.852-38.932 14.852-53.783 0z" fill="#ff6e80"/><path d="m0 168.97v-56.376c0-21.004 17.026-38.03 38.03-38.03 21.004-.002 38.032 17.026 38.03 38.03v56.376c0 21.004-17.026 38.03-38.03 38.03-21.001.002-38.032-17.025-38.03-38.03z" fill="#59d5ff"/><g><g fill="#fff"><ellipse cx="110.243" cy="318.621" rx="23.725" ry="29.792" transform="matrix(.707 -.707 .707 .707 -193.01 171.275)"/><ellipse cx="224.43" cy="432.808" rx="23.725" ry="29.792" transform="matrix(.707 -.707 .707 .707 -240.308 285.463)"/></g><g fill="#425460"><path d="m150.803 330.171c-1.919 0-3.839-.732-5.304-2.196-2.929-2.93-2.929-7.678 0-10.607 1.263-1.262 1.957-2.939 1.957-4.724 0-1.784-.694-3.462-1.957-4.724-1.262-1.263-2.938-1.957-4.723-1.957-1.784 0-3.462.694-4.724 1.957-2.93 2.928-7.678 2.928-10.607 0-2.929-2.93-2.929-7.678 0-10.607 4.096-4.095 9.54-6.35 15.331-6.35s11.235 2.255 15.33 6.351c4.095 4.095 6.35 9.539 6.35 15.33s-2.255 11.235-6.35 15.331c-1.464 1.463-3.384 2.196-5.303 2.196z"/><path d="m240.436 419.803c-1.919 0-3.838-.731-5.303-2.196-2.93-2.929-2.93-7.678-.001-10.606 2.604-2.605 2.604-6.844-.001-9.448-1.262-1.263-2.939-1.957-4.723-1.957s-3.462.694-4.724 1.957c-2.93 2.928-7.678 2.928-10.607 0-2.929-2.93-2.929-7.678 0-10.607 4.096-4.095 9.54-6.35 15.331-6.35s11.235 2.255 15.33 6.351c8.452 8.452 8.453 22.207.001 30.66-1.464 1.463-3.384 2.196-5.303 2.196z"/><path d="m183.136 387.362c-7.262 0-14.25-2.871-19.413-8.034-5.609-5.609-8.514-13.373-7.969-21.3.285-4.133 3.849-7.25 7.997-6.968 4.132.284 7.252 3.864 6.968 7.997-.247 3.599 1.068 7.121 3.611 9.663 2.541 2.542 6.064 3.854 9.666 3.612 4.104-.27 7.712 2.837 7.995 6.97.283 4.132-2.837 7.712-6.97 7.995-.629.044-1.258.065-1.885.065z"/></g></g><path d="m227.885 23.078-42.579 73.748c-10.457 18.11-4.349 41.406 13.92 51.95 18.19 10.502 41.448 4.269 51.95-13.92l19.357-33.527c-36.513-10.438-49.966-51.371-42.648-78.251z" fill="#ff96c0"/><path d="m38.03 207c21.004 0 38.03-17.026 38.03-38.03v-21.099c-48.18.691-66.302-39.184-65.555-61.504-6.504 6.824-10.505 16.055-10.505 26.227v56.376c-.002 21.005 17.029 38.032 38.03 38.03z" fill="#00c4fc"/><path d="m356.25 97.655-61.91 61.91c-14.852 14.852-14.852 38.932 0 53.784s38.932 14.852 53.783 0l36.769-36.769c-32.108-8.887-37.423-53.568-28.642-78.925z" fill="#f8475e"/><path d="m453.657 447.973c-36.913-20.288-29.622-58.577-20.806-74.533l-25.531 2.233c-20.923 1.831-36.402 20.277-34.572 41.201 1.839 21.019 20.379 36.394 41.201 34.572z" fill="#ff8b43"/></g></svg>