<svg id="Capa_1" enable-background="new 0 0 512 512" height="512" viewBox="0 0 512 512" width="512" xmlns="http://www.w3.org/2000/svg"><g><path d="m512 186.187v217.333c0 17.072-13.837 30.909-30.909 30.909h-310.545c-17.072 0-30.909-13.837-30.909-30.909v-217.333c0-101.155 80.642-183.456 181.148-186.114 1.67-.052 3.349-.073 5.029-.073 51.412 0 97.962 20.843 131.652 54.534s54.534 80.24 54.534 131.653z" fill="#a09dad"/><path d="m366.397 434.428h-195.851c-17.072 0-30.909-13.837-30.909-30.909v-217.332c0-101.155 80.642-183.456 181.148-186.114-27.406 30.754-152.042 188.319 5.028 356.043 32.548 34.751 43.819 60.097 40.584 78.312z" fill="#827f97"/><path d="m449.945 434.428v46.662c0 17.072-13.847 30.909-30.909 30.909h-209.585l-85.33-201.692h201.693c68.556 0 124.131 55.565 124.131 124.121z" fill="#ace094"/><path d="m319.271 348.944s-34.927 25.171-34.927 69.968v93.088h-74.893l-85.33-201.692h168.671z" fill="#8dd470"/><path d="m465.451 209.451c0 76.418-61.375 138.494-137.525 139.627-2.906.041-5.79 0-8.655-.134l-41.542-20.101-17.938 3.524h-.01c-33.011-17.855-58.192-48.62-68.495-85.536l11.024-70.205 50.743-45.096c19.236-2.988 41.295-.505 65.6 11.931 4.513 2.318 9.819 2.318 14.331 0 42.881-21.946 78.767-12.879 104.452 2.442 12.992 7.748 22.172 20.657 25.191 35.473.01.082.031.154.041.227 1.825 8.993 2.783 18.307 2.783 27.848z" fill="#ffd4bd"/><path d="m319.271 348.944c-72.482-3.41-131.457-62.91-133.054-136.382-.237-10.633.721-20.987 2.741-30.96.021-.072.031-.144.051-.227 3.019-14.816 12.199-27.726 25.191-35.473 11.127-6.635 24.161-12.096 38.853-14.373-13.043 61.571-4.378 138.174 66.218 217.415z" fill="#ffbf9d"/><path d="m263.758 364.605v.319c-.041 17.021-14.064 30.713-31.084 30.713h-201.59c-17.021 0-31.043-13.693-31.084-30.713v-.319c0-63.333 44.653-116.249 104.195-128.963 8.933-1.916 18.185-2.916 27.684-2.916 72.832-.001 131.879 59.046 131.879 131.879z" fill="#e4996d"/><path d="m80.487 395.637h-49.403c-17.021 0-31.043-13.693-31.084-30.713v-.319c0-63.333 44.653-116.249 104.195-128.963-15.053 21.347-54.679 87.874-23.708 159.995z" fill="#d97c41"/><path d="m209.451 496.484v15.516h-139.689c-8.541 0-15.455-6.923-15.455-15.455v-.061c0-31.919 19.287-59.346 46.838-71.235 9.427-4.08 19.813-6.336 30.734-6.336 21.42 0 40.81 8.685 54.853 22.718 14.033 14.042 22.719 33.433 22.719 54.853z" fill="#b18cd9"/><path d="m126.109 457.517s-21.915 13.291-21.915 38.544v15.939h-34.432c-8.541 0-15.455-6.923-15.455-15.455v-.061c0-31.919 19.287-59.346 46.838-71.235 13.343 17.175 24.964 32.268 24.964 32.268z" fill="#996acc"/><path d="m232.725 356.671v.165c0 55.698-45.148 100.856-100.846 100.856-1.937 0-3.864-.051-5.77-.175l-61.107-32.269-22.1-68.34 26.685-30.662c16.382-4.472 37.483-8.191 62.292-8.191 38.863 0 68.587 9.128 85.392 15.949 9.252 3.751 15.434 12.684 15.454 22.667z" fill="#ffddcf"/><path d="m126.109 457.517c-53.009-2.977-95.077-46.92-95.077-100.681v-.165c.021-9.984 6.202-18.916 15.455-22.667 6.068-2.462 13.827-5.234 23.099-7.758-3.585 39.626 7.687 86.536 56.523 131.271z" fill="#ffcbbe"/><g><g><path d="m67.538 380.485c-4.268 0-7.727-3.46-7.727-7.727v-12.364c0-4.268 3.46-7.727 7.727-7.727s7.727 3.46 7.727 7.727v12.364c0 4.267-3.46 7.727-7.727 7.727z" fill="#495560"/></g><g><path d="m196.22 380.485c-4.268 0-7.727-3.46-7.727-7.727v-12.364c0-4.268 3.46-7.727 7.727-7.727s7.727 3.46 7.727 7.727v12.364c0 4.267-3.459 7.727-7.727 7.727z" fill="#495560"/></g><g><path d="m131.879 387.845c-8.735 0-17.041-3.783-22.788-10.379-2.804-3.218-2.469-8.099.749-10.902 3.217-2.804 8.099-2.468 10.902.749 2.812 3.227 6.871 5.077 11.137 5.077 4.267 0 8.326-1.85 11.138-5.077 2.804-3.218 7.684-3.553 10.902-.749s3.553 7.685.749 10.902c-5.747 6.596-14.054 10.379-22.789 10.379z" fill="#495560"/></g></g><g><g fill="#ffa1ac"><ellipse cx="245.066" cy="226.184" rx="29.796" ry="23.728"/><ellipse cx="406.57" cy="226.184" rx="29.796" ry="23.728"/></g><g><path d="m276.614 208.091c-4.268 0-7.727-3.46-7.727-7.727 0-3.559-2.896-6.455-6.455-6.455s-6.455 2.896-6.455 6.455c0 4.268-3.46 7.727-7.727 7.727-4.268 0-7.727-3.46-7.727-7.727 0-12.081 9.829-21.91 21.91-21.91s21.91 9.829 21.91 21.91c-.002 4.268-3.462 7.727-7.729 7.727z" fill="#495560"/></g><g><path d="m403.388 208.091c-4.268 0-7.727-3.46-7.727-7.727 0-3.559-2.896-6.455-6.455-6.455s-6.455 2.896-6.455 6.455c0 4.268-3.46 7.727-7.727 7.727-4.268 0-7.727-3.46-7.727-7.727 0-12.081 9.829-21.91 21.91-21.91s21.91 9.829 21.91 21.91c-.002 4.268-3.462 7.727-7.729 7.727z" fill="#495560"/></g><g><path d="m325.818 231.521c-7.999 0-15.605-3.464-20.869-9.504-2.804-3.217-2.469-8.099.749-10.903s8.098-2.469 10.903.749c2.328 2.671 5.688 4.203 9.218 4.203s6.89-1.532 9.218-4.203c2.804-3.218 7.685-3.552 10.903-.749 3.217 2.804 3.552 7.686.749 10.903-5.265 6.04-12.872 9.504-20.871 9.504z" fill="#495560"/></g></g></g></svg>