<?xml version="1.0" encoding="UTF-8"?>
<svg xmlns="http://www.w3.org/2000/svg" id="uuid-c141e54e-04a2-45d0-b6a1-1fd7c7438fb7"
    data-name="Layer 2" viewBox="0 0 239.45 239.45">
    <defs>
        <style>
            .uuid-aefeae16-179a-48fa-8d2e-a57ddb33209b, .uuid-0f51c286-421c-4c28-bf4b-b80c35bd984f,
            .uuid-4b90ef90-3bf9-4036-b64c-a221235fb8c4, .uuid-e91894c0-0397-43ac-9480-8a91648e9e94,
            .uuid-10514837-cf68-443c-aab4-38b42fd0bc51 {
            stroke-width: 0px;
            }

            .uuid-0f51c286-421c-4c28-bf4b-b80c35bd984f {
            fill: #6fd6a2;
            }

            .uuid-4b90ef90-3bf9-4036-b64c-a221235fb8c4 {
            fill: #9ae59c;
            }

            .uuid-e91894c0-0397-43ac-9480-8a91648e9e94 {
            fill: #dbf4be;
            }

            .uuid-10514837-cf68-443c-aab4-38b42fd0bc51 {
            fill: #fff;
            }
        </style>
    </defs>
    <g id="uuid-d60aba51-0e86-4169-8bbb-db4f78db952c" data-name="Capa 1">
        <circle class="uuid-4b90ef90-3bf9-4036-b64c-a221235fb8c4" cx="119.73" cy="119.73" r="112.23" />
        <path class="uuid-10514837-cf68-443c-aab4-38b42fd0bc51"
            d="m163.82,112.78l-64.13-37.03c-5.34-3.08-12.02.77-12.02,6.94v74.05c0,6.17,6.68,10.03,12.02,6.94l64.13-37.03c5.34-3.08,5.34-10.8,0-13.88Z" />
        <path class="uuid-0f51c286-421c-4c28-bf4b-b80c35bd984f"
            d="m135.76,215.92c-61.98,0-112.23-50.24-112.23-112.23,0-26.91,9.49-51.58,25.28-70.92C23.61,53.36,7.5,84.65,7.5,119.73c0,61.98,50.25,112.23,112.23,112.23,35.07,0,66.37-16.11,86.95-41.31-19.33,15.79-44.01,25.28-70.92,25.28Z" />
        <path class="uuid-e91894c0-0397-43ac-9480-8a91648e9e94"
            d="m163.82,112.78l-11.23-6.48-28.85,16.66c-3.6,2.09-6.81.7-8.02,0-1.21-.7-4.01-2.76-4.01-6.94v-33.32l-12.02-6.94c-5.35-3.08-12.02.77-12.02,6.94v74.05c0,6.17,6.68,10.03,12.02,6.94l64.13-37.03c5.34-3.08,5.34-10.8,0-13.88Z" />
        <path class="uuid-aefeae16-179a-48fa-8d2e-a57ddb33209b"
            d="m119.73,0C53.71,0,0,53.71,0,119.73s53.71,119.73,119.73,119.73,119.73-53.71,119.73-119.73S185.74,0,119.73,0Zm0,224.45c-57.75,0-104.73-46.98-104.73-104.73S61.98,15,119.73,15s104.73,46.98,104.73,104.73-46.98,104.73-104.73,104.73Z" />
        <path class="uuid-aefeae16-179a-48fa-8d2e-a57ddb33209b"
            d="m167.56,106.29l-64.13-37.03c-4.86-2.81-10.66-2.81-15.52,0-4.86,2.81-7.76,7.83-7.76,13.44v74.05c0,5.61,2.9,10.63,7.76,13.44,2.43,1.4,5.09,2.1,7.76,2.1s5.33-.7,7.76-2.1l64.13-37.03c4.86-2.8,7.76-7.83,7.76-13.44s-2.9-10.63-7.76-13.44Zm-7.5,13.88l-64.13,37.02c-.1.06-.26.15-.52,0s-.26-.33-.26-.45v-74.05c0-.12,0-.3.26-.45.1-.06.19-.08.27-.08.11,0,.19.05.25.08l64.13,37.03c.1.06.26.15.26.45s-.15.39-.26.45h0Z" />
    </g>
</svg>